<svg id="external-1" width="180" height="180" viewBox="0 0 180 180" fill="none" xmlns="http://www.w3.org/2000/svg">
<mask id="path-1-inside-1" fill="white">
<path d="M90 40C98.7759 40 107.397 42.3098 114.998 46.6974C122.598 51.085 128.91 57.3957 133.299 64.9955C137.687 72.5952 139.999 81.2162 140 89.9922C140.001 98.7681 137.693 107.39 133.307 114.991L115.984 104.995C118.616 100.434 120.001 95.2609 120 89.9953C119.999 84.7297 118.612 79.5571 115.979 74.9973C113.346 70.4374 109.559 66.651 104.999 64.0185C100.438 61.3859 95.2656 60 90 60L90 40Z"/>
</mask>
<path class="sector" d="M90 40C98.7759 40 107.397 42.3098 114.998 46.6974C122.598 51.085 128.91 57.3957 133.299 64.9955C137.687 72.5952 139.999 81.2162 140 89.9922C140.001 98.7681 137.693 107.39 133.307 114.991L115.984 104.995C118.616 100.434 120.001 95.2609 120 89.9953C119.999 84.7297 118.612 79.5571 115.979 74.9973C113.346 70.4374 109.559 66.651 104.999 64.0185C100.438 61.3859 95.2656 60 90 60L90 40Z" fill="white" stroke="black" stroke-width="4" mask="url(#path-1-inside-1)"/>
<mask id="path-2-inside-2" fill="white">
<path d="M133.301 115C128.913 122.6 122.602 128.912 115.002 133.3C107.402 137.688 98.7812 139.999 90.0052 140C81.2293 140.001 72.6077 137.692 65.0068 133.305C57.4059 128.918 51.0935 122.608 46.704 115.009L64.0224 105.005C66.6561 109.565 70.4436 113.351 75.0041 115.983C79.5646 118.615 84.7376 120.001 90.0031 120C95.2687 119.999 100.441 118.613 105.001 115.98C109.561 113.347 113.348 109.56 115.981 105L133.301 115Z"/>
</mask>
<path d="M133.301 115C128.913 122.6 122.602 128.912 115.002 133.3C107.402 137.688 98.7812 139.999 90.0052 140C81.2293 140.001 72.6077 137.692 65.0068 133.305C57.4059 128.918 51.0935 122.608 46.704 115.009L64.0224 105.005C66.6561 109.565 70.4436 113.351 75.0041 115.983C79.5646 118.615 84.7376 120.001 90.0031 120C95.2687 119.999 100.441 118.613 105.001 115.98C109.561 113.347 113.348 109.56 115.981 105L133.301 115Z" fill="white" stroke="black" stroke-width="4" mask="url(#path-2-inside-2)"/>
<mask id="path-3-inside-3" fill="white">
<path d="M46.6987 115C42.3108 107.4 40.0005 98.7786 40 90.0026C39.9995 81.2267 42.3089 72.6052 46.6961 65.0045C51.0833 57.4039 57.3937 51.0918 64.9932 46.7027C72.5927 42.3135 81.2136 40.0018 89.9895 40L89.9937 60C84.7282 60.0011 79.5556 61.3881 74.9959 64.0216C70.4362 66.6551 66.65 70.4423 64.0177 75.0027C61.3854 79.5631 59.9997 84.736 60 90.0016C60.0003 95.2671 61.3865 100.44 64.0192 105L46.6987 115Z"/>
</mask>
<path d="M46.6987 115C42.3108 107.4 40.0005 98.7786 40 90.0026C39.9995 81.2267 42.3089 72.6052 46.6961 65.0045C51.0833 57.4039 57.3937 51.0918 64.9932 46.7027C72.5927 42.3135 81.2136 40.0018 89.9895 40L89.9937 60C84.7282 60.0011 79.5556 61.3881 74.9959 64.0216C70.4362 66.6551 66.65 70.4423 64.0177 75.0027C61.3854 79.5631 59.9997 84.736 60 90.0016C60.0003 95.2671 61.3865 100.44 64.0192 105L46.6987 115Z" fill="white" stroke="black" stroke-width="4" mask="url(#path-3-inside-3)"/>
<mask id="path-4-inside-4" fill="white">
<path d="M90 20C102.286 20 114.356 23.2338 124.997 29.3764C135.637 35.519 144.474 44.354 150.618 54.9937C156.762 65.6333 159.998 77.7027 160 89.989C160.002 102.275 156.77 114.346 150.629 124.987L133.307 114.991C137.694 107.39 140.002 98.7683 140.001 89.9922C140 81.216 137.688 72.5949 133.3 64.995C128.911 57.3951 122.599 51.0842 114.998 46.6966C107.398 42.3089 98.7761 39.999 90 39.999L90 20Z"/>
</mask>
<path d="M90 20C102.286 20 114.356 23.2338 124.997 29.3764C135.637 35.519 144.474 44.354 150.618 54.9937C156.762 65.6333 159.998 77.7027 160 89.989C160.002 102.275 156.77 114.346 150.629 124.987L133.307 114.991C137.694 107.39 140.002 98.7683 140.001 89.9922C140 81.216 137.688 72.5949 133.3 64.995C128.911 57.3951 122.599 51.0842 114.998 46.6966C107.398 42.3089 98.7761 39.999 90 39.999L90 20Z" fill="white" stroke="black" stroke-width="4" mask="url(#path-4-inside-4)"/>
<mask id="path-5-inside-5" fill="white">
<path d="M150.622 125C144.479 135.64 135.643 144.476 125.003 150.62C114.363 156.764 102.294 159.999 90.0073 160C77.721 160.001 65.6508 156.769 55.0095 150.627C44.3683 144.486 35.5309 135.652 29.3856 125.013L46.7031 115.01C51.0928 122.609 57.4053 128.919 65.0063 133.306C72.6073 137.693 81.2291 140.002 90.0052 140.001C98.7814 140 107.403 137.689 115.003 133.301C122.603 128.912 128.914 122.601 133.302 115.001L150.622 125Z"/>
</mask>
<path d="M150.622 125C144.479 135.64 135.643 144.476 125.003 150.62C114.363 156.764 102.294 159.999 90.0073 160C77.721 160.001 65.6508 156.769 55.0095 150.627C44.3683 144.486 35.5309 135.652 29.3856 125.013L46.7031 115.01C51.0928 122.609 57.4053 128.919 65.0063 133.306C72.6073 137.693 81.2291 140.002 90.0052 140.001C98.7814 140 107.403 137.689 115.003 133.301C122.603 128.912 128.914 122.601 133.302 115.001L150.622 125Z"  fill="white" stroke="black" stroke-width="4"  mask="url(#path-5-inside-5)"/>
<mask id="path-6-inside-6" fill="white">
<path d="M29.3782 125C23.2351 114.36 20.0006 102.29 20 90.0037C19.9994 77.7173 23.2325 65.6472 29.3746 55.0063C35.5166 44.3654 44.3512 35.5285 54.9905 29.3837C65.6298 23.2389 77.699 20.0026 89.9853 20L89.9895 39.999C81.2134 40.0008 72.5924 42.3125 64.9927 46.7018C57.3931 51.091 51.0825 57.4032 46.6953 65.004C42.308 72.6048 39.9985 81.2265 39.999 90.0026C39.9995 98.7787 42.3098 107.4 46.6979 115L29.3782 125Z"/>
</mask>
<path d="M29.3782 125C23.2351 114.36 20.0006 102.29 20 90.0037C19.9994 77.7173 23.2325 65.6472 29.3746 55.0063C35.5166 44.3654 44.3512 35.5285 54.9905 29.3837C65.6298 23.2389 77.699 20.0026 89.9853 20L89.9895 39.999C81.2134 40.0008 72.5924 42.3125 64.9927 46.7018C57.3931 51.091 51.0825 57.4032 46.6953 65.004C42.308 72.6048 39.9985 81.2265 39.999 90.0026C39.9995 98.7787 42.3098 107.4 46.6979 115L29.3782 125Z" fill="white" stroke="black" stroke-width="4" mask="url(#path-6-inside-6)"/>
<mask id="path-7-inside-7" fill="white">
<path d="M90 0C105.797 1.88374e-07 121.315 4.15772 134.996 12.0554C148.677 19.953 160.038 31.3123 167.938 44.9918C175.837 58.6714 179.998 74.1892 180 89.9859C180.002 105.783 175.847 121.302 167.952 134.984L150.623 124.984C156.763 114.343 159.995 102.274 159.993 89.989C159.991 77.7039 156.756 65.6357 150.612 54.9972C144.468 44.3586 135.633 35.5244 124.993 29.3825C114.354 23.2405 102.285 20.007 90 20.007L90 0Z"/>
</mask>
<path d="M90 0C105.797 1.88374e-07 121.315 4.15772 134.996 12.0554C148.677 19.953 160.038 31.3123 167.938 44.9918C175.837 58.6714 179.998 74.1892 180 89.9859C180.002 105.783 175.847 121.302 167.952 134.984L150.623 124.984C156.763 114.343 159.995 102.274 159.993 89.989C159.991 77.7039 156.756 65.6357 150.612 54.9972C144.468 44.3586 135.633 35.5244 124.993 29.3825C114.354 23.2405 102.285 20.007 90 20.007L90 0Z" fill="white" stroke="black" stroke-width="4" mask="url(#path-7-inside-7)"/>
<mask id="path-8-inside-8" fill="white">
<path d="M167.942 135C160.044 148.68 148.684 160.041 135.004 167.94C121.324 175.839 105.806 179.998 90.0094 180C74.2127 180.002 58.6938 175.846 45.0122 167.949C31.3307 160.053 19.9684 148.695 12.0671 135.016L29.3916 125.009C35.5364 135.647 44.3728 144.48 55.013 150.621C65.6532 156.762 77.7222 159.994 90.0073 159.993C102.292 159.992 114.361 156.757 125 150.614C135.639 144.471 144.473 135.636 150.616 124.997L167.942 135Z"/>
</mask>
<path d="M167.942 135C160.044 148.68 148.684 160.041 135.004 167.94C121.324 175.839 105.806 179.998 90.0094 180C74.2127 180.002 58.6938 175.846 45.0122 167.949C31.3307 160.053 19.9684 148.695 12.0671 135.016L29.3916 125.009C35.5364 135.647 44.3728 144.48 55.013 150.621C65.6532 156.762 77.7222 159.994 90.0073 159.993C102.292 159.992 114.361 156.757 125 150.614C135.639 144.471 144.473 135.636 150.616 124.997L167.942 135Z" fill="white" stroke="black" stroke-width="4" mask="url(#path-8-inside-8)"/>
<mask id="path-9-inside-9" fill="white">
<path d="M12.0577 135C4.15936 121.32 0.000824487 105.801 1.22551e-07 90.0047C-0.000824242 74.208 4.15609 58.6893 12.053 45.0082C19.9499 31.327 31.3087 19.9653 44.9878 12.0648C58.6669 4.16428 74.1845 0.00330853 89.9812 1.97166e-06L89.9853 20.007C77.7003 20.0096 65.6322 23.2456 54.994 29.3898C44.3557 35.534 35.5221 44.37 29.3806 55.0098C23.2392 65.6497 20.0064 77.7186 20.007 90.0037C20.0076 102.289 23.2417 114.357 29.3843 124.996L12.0577 135Z"/>
</mask>
<path d="M12.0577 135C4.15936 121.32 0.000824487 105.801 1.22551e-07 90.0047C-0.000824242 74.208 4.15609 58.6893 12.053 45.0082C19.9499 31.327 31.3087 19.9653 44.9878 12.0648C58.6669 4.16428 74.1845 0.00330853 89.9812 1.97166e-06L89.9853 20.007C77.7003 20.0096 65.6322 23.2456 54.994 29.3898C44.3557 35.534 35.5221 44.37 29.3806 55.0098C23.2392 65.6497 20.0064 77.7186 20.007 90.0037C20.0076 102.289 23.2417 114.357 29.3843 124.996L12.0577 135Z" fill="white" stroke="black" stroke-width="4" mask="url(#path-9-inside-9)"/>
</svg>
